<svg xmlns="http://www.w3.org/2000/svg" width="1280" height="450" viewBox="0 0 1280 450"><rect width="100%" height="100%" fill="#FFA500"/><path fill="#FFFFFF" d="M288.22 237.3h30.59l-11.71-31.99q-.86-2.12-1.79-5.05t-1.87-6.32q-.86 3.39-1.79 6.35t-1.8 5.16zm24.4-59.85 37.77 96.16h-13.83q-2.33 0-3.79-1.16-1.46-1.17-2.19-2.9l-7.19-19.61h-39.83l-7.18 19.61q-.53 1.53-2.06 2.8-1.53 1.26-3.79 1.26h-13.97l37.84-96.16zm138.52 0h13.5v96.16h-15.76V211.5q0-3.73.4-8.05l-29.06 54.6q-2.06 3.92-6.32 3.92h-2.53q-4.25 0-6.31-3.92l-29.4-54.8q.2 2.2.34 4.33.13 2.12.13 3.92v62.11h-15.76v-96.16h13.5q1.2 0 2.06.07.86.06 1.56.33t1.27.86q.56.6 1.09 1.6l28.8 53.4q1.13 2.13 2.09 4.39.97 2.26 1.9 4.65.93-2.46 1.93-4.75.99-2.3 2.12-4.42l28.4-53.27q.53-1 1.13-1.6.6-.59 1.3-.86t1.56-.33q.86-.07 2.06-.07m55.13 59.85h30.59l-11.7-31.99q-.87-2.12-1.8-5.05t-1.86-6.32q-.87 3.39-1.8 6.35t-1.79 5.16zm24.41-59.85 37.77 96.16h-13.83q-2.33 0-3.8-1.16-1.46-1.17-2.19-2.9l-7.18-19.61h-39.84l-7.18 19.61q-.53 1.53-2.06 2.8-1.53 1.26-3.79 1.26h-13.96l37.83-96.16zm65.63 45.75h11.17q5.06 0 8.81-1.26 3.76-1.26 6.19-3.49t3.62-5.29q1.2-3.06 1.2-6.72 0-7.31-4.82-11.23-4.82-3.93-14.73-3.93h-11.44zm33.12 14.9 24.07 35.51h-16.16q-4.59 0-6.65-3.59l-20.21-30.79q-1.14-1.73-2.5-2.46t-4.02-.73h-7.65v37.57h-17.89v-96.16h29.33q9.77 0 16.79 2.03t11.5 5.68q4.49 3.66 6.62 8.75t2.13 11.2q0 4.86-1.43 9.18t-4.12 7.85q-2.7 3.52-6.65 6.18-3.96 2.66-9.01 4.19 1.72 1 3.19 2.36 1.46 1.37 2.66 3.23m54.73-.8h30.59l-11.71-31.99q-.86-2.12-1.79-5.05t-1.86-6.32q-.87 3.39-1.8 6.35t-1.8 5.16zm24.4-59.85 37.77 96.16H732.5q-2.32 0-3.79-1.16-1.46-1.17-2.19-2.9l-7.18-19.61H679.5l-7.18 19.61q-.53 1.53-2.06 2.8-1.53 1.26-3.79 1.26H652.5l37.84-96.16zm65.64 81.4h38.44v14.76h-56.33v-96.16h17.89zm48.08-18.56v-13.7h34.44v13.7zm82.59 18.02h24.67q2.66 0 4.23 1.5 1.56 1.5 1.56 3.96v9.84h-65.97v-5.45q0-1.67.7-3.49.7-1.83 2.23-3.3l29.19-29.26q3.66-3.72 6.55-7.11t4.82-6.72q1.93-3.32 2.96-6.75 1.03-3.42 1.03-7.21 0-3.46-1-6.09-.99-2.62-2.82-4.42t-4.39-2.69q-2.56-.9-5.75-.9-2.93 0-5.42.83-2.5.83-4.43 2.33-1.92 1.49-3.25 3.49-1.33 1.99-2 4.39-1.13 3.06-2.93 4.05-1.79 1-5.18.47l-8.65-1.53q1-6.92 3.86-12.14t7.15-8.71 9.84-5.25 11.94-1.76q6.65 0 12.17 1.96t9.44 5.55 6.12 8.65q2.19 5.05 2.19 11.23 0 5.32-1.56 9.85-1.56 4.52-4.19 8.64t-6.15 7.98q-3.53 3.86-7.38 7.85l-21.68 22.14q3.12-.93 6.22-1.43 3.09-.5 5.88-.5m65.17 1.34h18.09q4.99 0 8.38-1.2t5.42-3.19q2.03-2 2.92-4.66.9-2.66.9-5.65 0-3.13-1-5.62-.99-2.49-3.12-4.26-2.13-1.76-5.49-2.69t-8.08-.93h-18.02zm15.23-68.37h-15.23v27.8h14.23q9.18 0 13.87-3.33 4.69-3.32 4.69-10.57 0-7.51-4.26-10.71-4.26-3.19-13.3-3.19m-33.12-13.83h33.12q9.44 0 16.16 1.8 6.72 1.79 11 5.12 4.29 3.32 6.29 8.04 1.99 4.72 1.99 10.64 0 3.39-.99 6.49-1 3.09-3.1 5.78-2.09 2.7-5.32 4.89-3.22 2.19-7.68 3.72 19.82 4.46 19.82 21.42 0 6.12-2.33 11.3-2.32 5.19-6.78 8.95-4.46 3.75-10.97 5.88-6.52 2.13-14.9 2.13h-36.31z"/></svg>