<svg xmlns="http://www.w3.org/2000/svg" width="450" height="200" viewBox="0 0 450 200"><rect width="100%" height="100%" fill="#FFA500"/><path fill="#FFFFFF" d="M100.81 103.975h9.89l-3.78-10.34q-.28-.69-.58-1.63-.3-.95-.6-2.05-.28 1.1-.58 2.06-.3.95-.58 1.66zm7.9-19.35 12.21 31.09h-4.47q-.76 0-1.23-.38-.47-.37-.71-.93l-2.32-6.34H99.31l-2.32 6.34q-.17.49-.67.9-.49.41-1.22.41h-4.52l12.23-31.09zm44.78 0h4.36v31.09h-5.09v-20.08q0-1.21.13-2.6l-9.4 17.65q-.66 1.27-2.04 1.27h-.82q-1.37 0-2.04-1.27l-9.5-17.72q.06.71.1 1.4.05.69.05 1.27v20.08h-5.1v-31.09h4.37q.38 0 .66.02t.51.11q.22.09.41.28.18.19.35.52l9.31 17.26q.37.69.68 1.42t.61 1.5q.3-.79.62-1.53.33-.75.69-1.43l9.18-17.22q.18-.33.37-.52t.42-.28q.22-.09.5-.11t.67-.02m17.82 19.35h9.89l-3.78-10.34q-.28-.69-.58-1.63-.3-.95-.6-2.05-.28 1.1-.58 2.06-.3.95-.58 1.66zm7.89-19.35 12.22 31.09h-4.48q-.75 0-1.22-.38-.47-.37-.71-.93l-2.32-6.34h-12.88l-2.32 6.34q-.18.49-.67.9t-1.23.41h-4.51l12.23-31.09zm21.22 14.79h3.62q1.63 0 2.85-.41 1.21-.4 1.99-1.12.79-.72 1.18-1.71.38-.99.38-2.18 0-2.36-1.56-3.63-1.55-1.27-4.76-1.27h-3.7zm10.71 4.82 7.78 11.48h-5.22q-1.48 0-2.15-1.16l-6.54-9.96q-.36-.55-.8-.79t-1.3-.24h-2.48v12.15h-5.78v-31.09h9.48q3.16 0 5.43.66 2.27.65 3.72 1.83 1.45 1.19 2.14 2.83.69 1.65.69 3.62 0 1.57-.46 2.97-.47 1.4-1.34 2.54t-2.15 2-2.91 1.35q.56.33 1.03.77t.86 1.04m17.7-.26h9.89l-3.79-10.34q-.28-.69-.58-1.63-.3-.95-.6-2.05-.28 1.1-.58 2.06-.3.95-.58 1.66zm7.89-19.35 12.21 31.09h-4.47q-.76 0-1.23-.38-.47-.37-.71-.93l-2.32-6.34h-12.88l-2.32 6.34q-.17.49-.67.9-.49.41-1.22.41h-4.52l12.24-31.09zm21.22 26.32h12.42v4.77h-18.21v-31.09h5.79zm25.99-6v-4.43h11.14v4.43zm37.15 5.82h7.98q.86 0 1.36.49.51.48.51 1.28v3.18H309.6v-1.76q0-.54.23-1.13.22-.59.72-1.07l9.44-9.46q1.18-1.2 2.11-2.3.94-1.09 1.56-2.17.63-1.07.96-2.18t.33-2.33q0-1.12-.32-1.97t-.91-1.43q-.6-.58-1.42-.87-.83-.29-1.86-.29-.95 0-1.75.27-.81.27-1.43.75-.63.48-1.06 1.13-.43.64-.64 1.42-.37.99-.95 1.31t-1.68.15l-2.79-.49q.32-2.24 1.25-3.93.92-1.69 2.31-2.81 1.38-1.13 3.18-1.7 1.79-.57 3.86-.57 2.15 0 3.93.63 1.79.64 3.06 1.8 1.26 1.16 1.97 2.79.71 1.64.71 3.63 0 1.72-.5 3.19-.51 1.46-1.36 2.79t-1.99 2.58q-1.13 1.25-2.38 2.54l-7.01 7.16q1.01-.3 2.01-.46 1-.17 1.9-.17m21.07.43H348q1.61 0 2.71-.38 1.1-.39 1.75-1.03.66-.65.95-1.51t.29-1.83q0-1.01-.32-1.81-.33-.81-1.02-1.38-.68-.57-1.77-.87-1.08-.3-2.61-.3h-5.83zm4.93-22.1h-4.93v8.99h4.6q2.97 0 4.49-1.08 1.51-1.07 1.51-3.41 0-2.43-1.37-3.47-1.38-1.03-4.3-1.03m-10.71-4.47h10.71q3.05 0 5.22.58t3.56 1.66q1.39 1.07 2.03 2.6.65 1.52.65 3.44 0 1.09-.33 2.09-.32 1-1 1.88-.67.87-1.72 1.58-1.04.71-2.48 1.2 6.41 1.44 6.41 6.92 0 1.98-.76 3.66-.75 1.67-2.19 2.89-1.44 1.21-3.55 1.9-2.1.69-4.81.69h-11.74z"/></svg>