<svg xmlns="http://www.w3.org/2000/svg" width="1705" height="600" viewBox="0 0 1705 600"><rect width="100%" height="100%" fill="#FFA500"/><path fill="#FFFFFF" d="M381.75 315.075h37.49l-14.34-39.2q-1.06-2.61-2.2-6.19-1.14-3.59-2.28-7.75-1.06 4.16-2.2 7.79-1.14 3.62-2.2 6.31zm29.92-73.35 46.29 117.85h-16.95q-2.86 0-4.65-1.43-1.79-1.42-2.69-3.54l-8.8-24.04h-48.82l-8.8 24.04q-.65 1.87-2.53 3.42-1.87 1.55-4.64 1.55h-17.12l46.37-117.85zm169.76 0h16.54v117.85h-19.31v-76.12q0-4.57.49-9.86l-35.62 66.91q-2.52 4.81-7.74 4.81h-3.1q-5.21 0-7.74-4.81l-36.02-67.16q.24 2.69.4 5.3.17 2.61.17 4.81v76.12h-19.32v-117.85h16.55q1.46 0 2.52.08t1.92.41q.85.33 1.55 1.06.69.73 1.34 1.96l35.29 65.44q1.39 2.61 2.57 5.38t2.32 5.7q1.14-3.01 2.36-5.82 1.23-2.81 2.61-5.42l34.8-65.28q.66-1.23 1.39-1.96t1.59-1.06q.85-.33 1.91-.41t2.53-.08m67.56 73.35h37.49l-14.34-39.2q-1.06-2.61-2.2-6.19-1.14-3.59-2.28-7.75-1.06 4.16-2.2 7.79-1.14 3.62-2.2 6.31zm29.91-73.35 46.3 117.85h-16.96q-2.85 0-4.64-1.43-1.79-1.42-2.69-3.54l-8.8-24.04h-48.82l-8.8 24.04q-.66 1.87-2.53 3.42t-4.65 1.55H610.2l46.37-117.85zm80.44 56.07h13.7q6.19 0 10.8-1.55 4.6-1.54 7.57-4.27 2.98-2.73 4.45-6.48 1.46-3.75 1.46-8.23 0-8.97-5.91-13.78-5.9-4.81-18.05-4.81h-14.02zm40.59 18.26 29.5 43.52h-19.8q-5.62 0-8.15-4.4l-24.78-37.74q-1.38-2.11-3.05-3.01t-4.93-.9h-9.38v46.05h-21.92v-117.85h35.94q11.98 0 20.58 2.49 8.6 2.48 14.1 6.96 5.5 4.49 8.11 10.72 2.61 6.24 2.61 13.73 0 5.95-1.75 11.25-1.76 5.3-5.06 9.62t-8.15 7.58-11.04 5.13q2.12 1.23 3.91 2.9t3.26 3.95m67.08-.98h37.49l-14.35-39.2q-1.06-2.61-2.2-6.19-1.14-3.59-2.28-7.75-1.06 4.16-2.2 7.79-1.14 3.62-2.2 6.31zm29.91-73.35 46.29 117.85h-16.95q-2.86 0-4.65-1.43-1.79-1.42-2.69-3.54l-8.8-24.04H861.3l-8.8 24.04q-.65 1.87-2.53 3.42-1.87 1.55-4.64 1.55h-17.12l46.38-117.85zm80.44 99.76h47.1v18.09h-69.03v-117.85h21.93zm98.53-22.74v-16.79h42.22v16.79zm140.83 22.08h30.24q3.26 0 5.17 1.84 1.92 1.83 1.92 4.85v12.06h-80.85v-6.68q0-2.04.86-4.28.85-2.24 2.73-4.04l35.78-35.86q4.48-4.56 8.02-8.72 3.55-4.15 5.91-8.23 2.37-4.07 3.63-8.27t1.26-8.84q0-4.24-1.22-7.46t-3.46-5.42q-2.25-2.2-5.38-3.3-3.14-1.1-7.05-1.1-3.59 0-6.65 1.02-3.05 1.02-5.41 2.85-2.37 1.83-4 4.28-1.63 2.44-2.44 5.38-1.39 3.75-3.59 4.97t-6.36.57l-10.59-1.87q1.22-8.48 4.73-14.88 3.5-6.4 8.76-10.67 5.25-4.28 12.06-6.44 6.8-2.16 14.63-2.16 8.15 0 14.91 2.4 6.77 2.41 11.58 6.81 4.8 4.4 7.49 10.59 2.69 6.2 2.69 13.77 0 6.52-1.91 12.07-1.92 5.54-5.14 10.59t-7.54 9.78q-4.31 4.73-9.04 9.62l-26.57 27.14q3.83-1.14 7.62-1.75 3.79-.62 7.21-.62m79.87 1.63h22.17q6.11 0 10.27-1.46 4.16-1.47 6.64-3.91 2.49-2.45 3.59-5.71t1.1-6.93q0-3.83-1.22-6.88-1.23-3.06-3.84-5.22-2.6-2.16-6.72-3.3-4.11-1.14-9.9-1.14h-22.09zm18.67-83.78h-18.67v34.07h17.44q11.25 0 17-4.08 5.74-4.07 5.74-12.95 0-9.21-5.21-13.12-5.22-3.92-16.3-3.92m-40.59-16.95h40.59q11.57 0 19.8 2.2t13.49 6.28q5.26 4.07 7.7 9.86 2.45 5.78 2.45 13.04 0 4.16-1.23 7.94-1.22 3.79-3.79 7.1-2.56 3.3-6.52 5.99-3.95 2.68-9.41 4.56 24.29 5.46 24.29 26.24 0 7.5-2.86 13.86-2.85 6.35-8.31 10.96-5.46 4.6-13.45 7.21-7.98 2.61-18.25 2.61h-44.5z"/></svg>