<svg xmlns="http://www.w3.org/2000/svg" width="600" height="350" viewBox="0 0 600 350"><rect width="100%" height="100%" fill="#FFA500"/><path fill="#FFFFFF" d="M132.5 180.37h13.34l-5.11-13.95q-.37-.93-.78-2.21-.4-1.27-.81-2.75-.38 1.48-.78 2.77-.41 1.29-.79 2.24zm10.64-26.1 16.47 41.93h-6.03q-1.01 0-1.65-.51t-.96-1.26l-3.13-8.55h-17.37l-3.13 8.55q-.24.67-.9 1.22-.67.55-1.66.55h-6.09l16.51-41.93zm60.41 0h5.89v41.93h-6.88v-27.09q0-1.62.18-3.51l-12.68 23.81q-.9 1.71-2.75 1.71h-1.1q-1.86 0-2.76-1.71l-12.82-23.89q.09.95.15 1.88t.06 1.71v27.09h-6.88v-41.93h5.89q.52 0 .9.02.38.03.68.15.31.12.55.38.25.26.48.69l12.56 23.29q.49.93.91 1.91.42.99.83 2.03.4-1.07.84-2.07.43-1 .93-1.93l12.38-23.23q.23-.43.49-.69t.57-.38q.3-.12.68-.15.38-.02.9-.02m24.04 26.1h13.34l-5.1-13.95q-.38-.93-.79-2.21-.4-1.27-.81-2.75-.38 1.48-.78 2.77-.41 1.29-.79 2.24zm10.64-26.1 16.47 41.93h-6.03q-1.01 0-1.65-.51t-.96-1.26l-3.13-8.55h-17.37l-3.13 8.55q-.23.67-.9 1.22t-1.65.55h-6.09l16.5-41.93zm28.63 19.95h4.87q2.2 0 3.84-.55t2.7-1.53q1.06-.97 1.58-2.3.52-1.34.52-2.93 0-3.19-2.1-4.9-2.11-1.71-6.43-1.71h-4.98zm14.44 6.49 10.5 15.49h-7.05q-2 0-2.9-1.57l-8.82-13.42q-.49-.76-1.08-1.08-.6-.32-1.76-.32h-3.33v16.39h-7.81v-41.93h12.79q4.27 0 7.33.88 3.06.89 5.01 2.48 1.96 1.59 2.89 3.81t.93 4.89q0 2.12-.63 4-.62 1.89-1.79 3.42-1.18 1.54-2.9 2.7-1.73 1.16-3.93 1.83.75.43 1.39 1.03.64.59 1.16 1.4m23.86-.34h13.34l-5.1-13.95q-.38-.93-.78-2.21-.41-1.27-.81-2.75-.38 1.48-.79 2.77-.4 1.29-.78 2.24zm10.65-26.1 16.47 41.93h-6.03q-1.02 0-1.66-.51-.63-.51-.95-1.26l-3.13-8.55h-17.38l-3.13 8.55q-.23.67-.9 1.22-.66.55-1.65.55h-6.09l16.5-41.93zm28.62 35.49h16.76v6.44h-24.56v-41.93h7.8zm35.06-8.09v-5.97h15.02v5.97zm50.11 7.86h10.76q1.16 0 1.84.65.69.65.69 1.73v4.29h-28.77v-2.38q0-.72.3-1.52.31-.8.97-1.44l12.73-12.76q1.6-1.62 2.86-3.1t2.1-2.93 1.29-2.94q.45-1.5.45-3.15 0-1.51-.43-2.65-.44-1.15-1.23-1.93-.8-.78-1.92-1.17-1.11-.4-2.51-.4-1.27 0-2.36.37-1.09.36-1.93 1.01t-1.42 1.52-.87 1.92q-.49 1.33-1.28 1.77-.78.43-2.26.2l-3.77-.67q.44-3.01 1.68-5.29 1.25-2.28 3.12-3.8t4.29-2.29q2.43-.77 5.21-.77 2.9 0 5.31.86 2.4.85 4.11 2.42 1.72 1.57 2.67 3.77.96 2.2.96 4.9 0 2.32-.68 4.29t-1.83 3.77q-1.14 1.8-2.68 3.48t-3.22 3.42l-9.45 9.66q1.36-.41 2.71-.62 1.35-.22 2.56-.22m28.42.58h7.89q2.18 0 3.66-.52 1.47-.52 2.36-1.39.88-.87 1.27-2.03.4-1.16.4-2.47 0-1.36-.44-2.45-.43-1.09-1.36-1.86-.93-.76-2.39-1.17-1.47-.41-3.53-.41h-7.86zm6.64-29.81h-6.64v12.12h6.21q4 0 6.05-1.45 2.04-1.45 2.04-4.61 0-3.28-1.86-4.67-1.85-1.39-5.8-1.39m-14.44-6.03h14.44q4.12 0 7.05.78t4.8 2.23 2.74 3.51.87 4.64q0 1.48-.43 2.83-.44 1.35-1.35 2.52-.92 1.18-2.32 2.13-1.41.96-3.35 1.63 8.64 1.94 8.64 9.33 0 2.67-1.01 4.93-1.02 2.27-2.96 3.91-1.95 1.63-4.79 2.56t-6.49.93h-15.84z"/></svg>